<svg width="254" height="88" viewBox="0 0 254 88" fill="none" xmlns="http://www.w3.org/2000/svg">
<path d="M0.936 69.384H81.384V79.752H0.936V69.384ZM34.632 52.584H47.4V73.608H34.632V52.584ZM9.96 6.408H72.36V35.976H22.824V50.952H10.152V25.992H59.688V16.488H9.96V6.408ZM10.152 45.864H74.376V56.136H10.152V45.864ZM97.4085 8.808H153.761V18.888H97.4085V8.808ZM89.2485 67.56H169.601V77.928H89.2485V67.56ZM147.041 8.808H159.713V19.368C159.713 31.848 159.713 43.944 156.545 62.184L143.777 61.128C147.041 44.04 147.041 31.368 147.041 19.368V8.808ZM238.521 0.743998H251.385V64.584H238.521V0.743998ZM192.153 77.832H253.593V88.008H192.153V77.832ZM192.153 58.152H204.921V81.96H192.153V58.152ZM203.001 6.31199C216.633 6.31199 227.097 15.72 227.097 28.872C227.097 41.928 216.633 51.432 203.001 51.432C189.369 51.432 178.809 41.928 178.809 28.872C178.809 15.72 189.369 6.31199 203.001 6.31199ZM203.001 17.352C196.377 17.352 191.289 21.576 191.289 28.872C191.289 36.072 196.377 40.296 203.001 40.296C209.529 40.296 214.617 36.072 214.617 28.872C214.617 21.576 209.529 17.352 203.001 17.352Z" fill="black"/>
</svg>
