<svg width="347" height="90" viewBox="0 0 347 90" fill="none" xmlns="http://www.w3.org/2000/svg">
<path d="M0.936 69.384H81.384V79.752H0.936V69.384ZM34.632 52.584H47.4V73.608H34.632V52.584ZM9.96 6.408H72.36V35.976H22.824V50.952H10.152V25.992H59.688V16.488H9.96V6.408ZM10.152 45.864H74.376V56.136H10.152V45.864ZM97.4085 8.808H153.761V18.888H97.4085V8.808ZM89.2485 67.56H169.601V77.928H89.2485V67.56ZM147.041 8.808H159.713V19.368C159.713 31.848 159.713 43.944 156.545 62.184L143.777 61.128C147.041 44.04 147.041 31.368 147.041 19.368V8.808ZM201.273 6.79199C214.809 6.79199 224.601 19.08 224.601 38.472C224.601 58.056 214.809 70.344 201.273 70.344C187.737 70.344 177.945 58.056 177.945 38.472C177.945 19.08 187.737 6.79199 201.273 6.79199ZM201.273 18.408C194.649 18.408 190.233 25.416 190.233 38.472C190.233 51.72 194.649 58.824 201.273 58.824C207.897 58.824 212.409 51.72 212.409 38.472C212.409 25.416 207.897 18.408 201.273 18.408ZM234.297 0.647999H247.161V89.544H234.297V0.647999ZM244.281 34.152H260.025V44.712H244.281V34.152ZM265.778 39.624H346.226V49.896H265.778V39.624ZM299.474 44.136H312.146V58.248H299.474V44.136ZM299.186 61.8H310.034V63.336C310.034 76.296 297.938 87.144 275.09 89.256L270.962 79.656C290.354 77.928 299.186 70.152 299.186 63.336V61.8ZM301.49 61.8H312.338V63.336C312.338 70.632 320.882 78.024 340.562 79.656L336.53 89.256C313.778 87.144 301.49 76.872 301.49 63.336V61.8ZM306.002 1.608C325.682 1.608 338.162 7.848 338.162 18.408C338.162 28.968 325.682 35.208 306.002 35.208C286.322 35.208 273.842 28.968 273.842 18.408C273.842 7.848 286.322 1.608 306.002 1.608ZM306.002 11.112C293.714 11.112 286.994 13.512 286.994 18.408C286.994 23.112 293.714 25.608 306.002 25.608C318.194 25.608 325.01 23.112 325.01 18.408C325.01 13.512 318.194 11.112 306.002 11.112Z" fill="black"/>
</svg>
