<svg width="56" height="52" viewBox="0 0 56 52" fill="none" xmlns="http://www.w3.org/2000/svg">
<path d="M26 19V7C26 6.44772 26.4477 6 27 6H37C37.5523 6 38 6.44741 38 6.99969V19C38 22.2 40.1667 22 41.5 22H53C53.5523 22 54 22.4477 54 23V33C54 33.5523 53.5523 34 53 34H41.5C38.3 34 38 36.1667 38 37.5V49C38 49.5523 37.5523 50 37 50H27C26.4477 50 26 49.5535 26 49.0012V37.5C26 35.1 24.3333 34.3333 23 34H11C10.4477 34 10 33.5523 10 33V23C10 22.4477 10.4474 22 10.9997 22H23C26.2 22 26 20.3333 26 19Z" fill="white" stroke="#1D24D0" stroke-width="3.5"/>
<path d="M18 15V3C18 2.44772 18.4477 2 19 2H29C29.5523 2 30 2.44741 30 2.99969V15C30 18.2 32.1667 18 33.5 18H45C45.5523 18 46 18.4477 46 19V29C46 29.5523 45.5523 30 45 30H33.5C30.3 30 30 32.1667 30 33.5V45C30 45.5523 29.5523 46 29 46H19C18.4477 46 18 45.5535 18 45.0012V33.5C18 31.1 16.3333 30.3333 15 30H3C2.44772 30 2 29.5523 2 29V19C2 18.4477 2.44741 18 2.99969 18H15C18.2 18 18 16.3333 18 15Z" fill="white" stroke="#38B1CC" stroke-width="3.5"/>
<path d="M13.5 21.5H16" stroke="#F49B33"/>
<path d="M5 21.5H8M10.5 21.5H11.5" stroke="#F49B33"/>
</svg>
