<svg width="178" height="60" viewBox="0 0 178 60" fill="none" xmlns="http://www.w3.org/2000/svg">
<g filter="url(#filter0_d_49_136)">
<path d="M30 19V7C30 6.44772 30.4477 6 31 6H41C41.5523 6 42 6.44741 42 6.99969V19C42 22.2 44.1667 22 45.5 22H57C57.5523 22 58 22.4477 58 23V33C58 33.5523 57.5523 34 57 34H45.5C42.3 34 42 36.1667 42 37.5V49C42 49.5523 41.5523 50 41 50H31C30.4477 50 30 49.5535 30 49.0012V37.5C30 35.1 28.3333 34.3333 27 34H15C14.4477 34 14 33.5523 14 33V23C14 22.4477 14.4474 22 14.9997 22H27C30.2 22 30 20.3333 30 19Z" fill="white" stroke="#1D24D0" stroke-width="3.5"/>
<path d="M22 15V3C22 2.44772 22.4477 2 23 2H33C33.5523 2 34 2.44741 34 2.99969V15C34 18.2 36.1667 18 37.5 18H49C49.5523 18 50 18.4477 50 19V29C50 29.5523 49.5523 30 49 30H37.5C34.3 30 34 32.1667 34 33.5V45C34 45.5523 33.5523 46 33 46H23C22.4477 46 22 45.5535 22 45.0012V33.5C22 31.1 20.3333 30.3333 19 30H7C6.44772 30 6 29.5523 6 29V19C6 18.4477 6.44741 18 6.99969 18H19C22.2 18 22 16.3333 22 15Z" fill="white" stroke="#38B1CC" stroke-width="3.5"/>
<path d="M17.5 21.5H20" stroke="#F49B33"/>
<path d="M9 21.5H12M14.5 21.5H15.5" stroke="#F49B33"/>
<path d="M81.1094 32.9531H91.8906V38.6953H78.7266C76.4349 38.6953 74.9375 38.2396 74.2344 37.3281C73.6615 36.5729 73.375 35.0104 73.375 32.6406V7.52344H91.3047V13.2656H81.1094V32.9531ZM86.5391 24.8281V18.6953H92.4375V6.78125H100.211V42.4844H92.4375V24.8281H86.5391ZM116.578 23.5781C114.312 23.5781 112.802 23.2266 112.047 22.5234C111.292 21.8203 110.914 20.375 110.914 18.1875V7.64062H118.609V17.7969H136.461V23.5781H116.578ZM137.438 25.5703V31.3125H128.023V42.4453H120.367V31.3125H109.469V25.5703H137.438ZM164.898 6.85938H172.789V42.4844H164.898V6.85938ZM162.594 7.40625V24.9844H153.375V33.0312H164.234V38.8125H151.383C148.648 38.8125 146.969 38.526 146.344 37.9531C145.745 37.4062 145.445 35.8177 145.445 33.1875V19.125H154.703V13.1875H145.445V7.40625H162.594Z" fill="black"/>
</g>
<defs>
<filter id="filter0_d_49_136" x="0.25" y="0.25" width="181.75" height="59.5" filterUnits="userSpaceOnUse" color-interpolation-filters="sRGB">
<feFlood flood-opacity="0" result="BackgroundImageFix"/>
<feColorMatrix in="SourceAlpha" type="matrix" values="0 0 0 0 0 0 0 0 0 0 0 0 0 0 0 0 0 0 127 0" result="hardAlpha"/>
<feOffset dy="4"/>
<feGaussianBlur stdDeviation="2"/>
<feComposite in2="hardAlpha" operator="out"/>
<feColorMatrix type="matrix" values="0 0 0 0 0 0 0 0 0 0 0 0 0 0 0 0 0 0 0.25 0"/>
<feBlend mode="normal" in2="BackgroundImageFix" result="effect1_dropShadow_49_136"/>
<feBlend mode="normal" in="SourceGraphic" in2="effect1_dropShadow_49_136" result="shape"/>
</filter>
</defs>
</svg>
